<svg width="111" height="19" viewBox="0 0 111 19" fill="none" xmlns="http://www.w3.org/2000/svg">
<path d="M0.656 0.863999H4.424V18H0.656V0.863999ZM7.37413 5.592H10.6141V7.32H10.6861C11.5181 5.944 12.7821 5.256 14.4781 5.256C16.1901 5.256 17.3741 5.688 18.0301 6.552C18.6861 7.416 19.0141 8.688 19.0141 10.368V18H15.6061V10.992C15.6061 9.936 15.4381 9.168 15.1021 8.688C14.7821 8.192 14.2221 7.944 13.4221 7.944C12.4941 7.944 11.8221 8.224 11.4061 8.784C10.9901 9.344 10.7821 10.248 10.7821 11.496V18H7.37413V5.592ZM22.3447 7.872H20.3047V5.592H22.3447V4.632C22.3447 3.496 22.6967 2.584 23.4007 1.896C24.1207 1.208 25.1527 0.863999 26.4967 0.863999C26.7207 0.863999 27.0487 0.879999 27.4807 0.912C27.9127 0.943999 28.1847 0.959999 28.2967 0.959999V3.504C27.8807 3.456 27.4647 3.432 27.0487 3.432C26.5847 3.432 26.2487 3.544 26.0407 3.768C25.8487 3.976 25.7527 4.336 25.7527 4.848V5.592H28.1047V7.872H25.7527V18H22.3447V7.872ZM30.1687 5.592H33.5767V18H30.1687V5.592ZM33.5767 3.672H30.1687V0.863999H33.5767V3.672ZM36.2726 5.592H39.5126V7.32H39.5846C40.4166 5.944 41.6806 5.256 43.3766 5.256C45.0886 5.256 46.2726 5.688 46.9286 6.552C47.5846 7.416 47.9126 8.688 47.9126 10.368V18H44.5046V10.992C44.5046 9.936 44.3366 9.168 44.0006 8.688C43.6806 8.192 43.1206 7.944 42.3206 7.944C41.3926 7.944 40.7206 8.224 40.3046 8.784C39.8886 9.344 39.6806 10.248 39.6806 11.496V18H36.2726V5.592ZM54.0031 3.672H50.5951V0.863999H54.0031V3.672ZM50.5951 5.592H54.0031V18H50.5951V5.592ZM65.0146 18H60.7666L55.2226 0.863999H59.0866L62.9026 12.912H62.9506L66.8146 0.863999H70.7026L65.0146 18ZM74.8859 3.672H71.4779V0.863999H74.8859V3.672ZM71.4779 5.592H74.8859V18H71.4779V5.592ZM80.2094 13.968C80.2094 14.656 80.4654 15.176 80.9774 15.528C81.4894 15.88 82.1054 16.056 82.8254 16.056C83.4014 16.056 83.9134 15.928 84.3614 15.672C84.8254 15.416 85.0574 15.016 85.0574 14.472C85.0574 13.992 84.7614 13.624 84.1694 13.368C83.5774 13.112 82.5854 12.84 81.1934 12.552C80.6014 12.424 80.1054 12.288 79.7054 12.144C79.3214 12 78.9214 11.808 78.5054 11.568C78.0894 11.312 77.7774 10.992 77.5694 10.608C77.3614 10.224 77.2574 9.768 77.2574 9.24C77.2574 8.488 77.4094 7.84 77.7134 7.296C78.0174 6.752 78.4334 6.336 78.9614 6.048C79.5054 5.76 80.0734 5.56 80.6654 5.448C81.2734 5.32 81.9374 5.256 82.6574 5.256C84.1774 5.256 85.4334 5.568 86.4254 6.192C87.4334 6.8 88.0014 7.808 88.1294 9.216H84.8894C84.8094 8.096 84.0334 7.536 82.5614 7.536C81.2974 7.536 80.6654 7.92 80.6654 8.688C80.6654 8.864 80.6974 9.024 80.7614 9.168C80.8414 9.296 80.9534 9.416 81.0974 9.528C81.2574 9.624 81.4174 9.712 81.5774 9.792C81.7374 9.856 81.9454 9.928 82.2014 10.008C82.4734 10.072 82.7054 10.128 82.8974 10.176C83.1054 10.224 83.3774 10.288 83.7134 10.368C84.0494 10.432 84.3214 10.488 84.5294 10.536C85.7614 10.824 86.7214 11.216 87.4094 11.712C88.1134 12.208 88.4654 12.976 88.4654 14.016C88.4654 14.8 88.3054 15.488 87.9854 16.08C87.6654 16.656 87.2254 17.104 86.6654 17.424C86.1214 17.728 85.5294 17.952 84.8894 18.096C84.2494 18.24 83.5534 18.312 82.8014 18.312C81.7614 18.312 80.8334 18.192 80.0174 17.952C79.2014 17.696 78.4974 17.232 77.9054 16.56C77.3134 15.872 77.0014 15.008 76.9694 13.968H80.2094ZM94.7801 5.592H97.2761V7.872H94.7801V14.016C94.7801 14.592 94.8761 14.976 95.0681 15.168C95.2601 15.36 95.6441 15.456 96.2201 15.456C96.6521 15.456 97.0041 15.424 97.2761 15.36V18C96.7961 18.08 96.1321 18.12 95.2841 18.12C94.0521 18.12 93.0921 17.92 92.4041 17.52C91.7161 17.104 91.3721 16.328 91.3721 15.192V7.872H89.3081V5.592H91.3721V1.872H94.7801V5.592ZM98.7536 9.408C98.8496 7.952 99.4496 6.896 100.554 6.24C101.658 5.584 103.002 5.256 104.586 5.256C108.218 5.256 110.034 6.432 110.034 8.784V15.24C110.034 16.616 110.178 17.536 110.466 18H107.01C106.866 17.552 106.786 17.152 106.77 16.8C105.81 17.808 104.418 18.312 102.594 18.312C101.33 18.312 100.306 18.008 99.5216 17.4C98.7536 16.776 98.3696 15.848 98.3696 14.616C98.3696 13.736 98.5776 13.016 98.9936 12.456C99.4256 11.896 99.9456 11.52 100.554 11.328C101.178 11.136 101.85 10.976 102.57 10.848C103.29 10.72 103.954 10.64 104.562 10.608C105.17 10.56 105.666 10.424 106.05 10.2C106.45 9.976 106.642 9.648 106.626 9.216C106.626 8.56 106.434 8.12 106.05 7.896C105.666 7.656 105.122 7.536 104.418 7.536C103.026 7.536 102.274 8.16 102.162 9.408H98.7536ZM106.626 11.928C106.498 12.04 106.314 12.144 106.074 12.24C105.834 12.32 105.61 12.376 105.402 12.408C105.21 12.44 104.938 12.48 104.586 12.528C104.234 12.576 103.97 12.616 103.794 12.648C103.154 12.76 102.658 12.952 102.306 13.224C101.954 13.48 101.778 13.896 101.778 14.472C101.778 15.528 102.474 16.056 103.866 16.056C105.706 16.056 106.626 15.104 106.626 13.2V11.928Z" fill="url(#paint0_linear_1788_4109)"/>
<defs>
<linearGradient id="paint0_linear_1788_4109" x1="86.5352" y1="20.803" x2="-22.3059" y2="6.80542" gradientUnits="userSpaceOnUse">
<stop stop-color="#6691FF"/>
<stop offset="0.9999" stop-color="#42DEFF"/>
</linearGradient>
</defs>
</svg>
