<svg viewBox="0 0 24 25" fill="none" xmlns="http://www.w3.org/2000/svg">
<g clip-path="url(#clip0_406_736)">
<path d="M15 14.6615V13.0685V14.6615ZM15 14.6615L14.5281 15.0436L15 15.6265M15 14.6615V15.6265M15 15.6265H15.75V15.0193M15 15.6265L15.75 15.0193M15.75 15.0193L19.725 11.801L19.8491 11.9014L20.321 11.3185L19.8491 10.7356L19.725 10.836L15.75 7.6177V7.01048H15L14.5281 7.59339L15.75 15.0193ZM13.75 14.3185V13.5685H13H11.0003C11.0002 13.5685 11.0001 13.5685 11 13.5685C9.22298 13.5679 7.47959 14.0529 5.95828 14.9713C5.198 15.4303 4.50765 15.9887 3.90395 16.6288C4.69792 12.327 8.4683 9.06848 13 9.06848H13.75V8.31848V4.39057L22.308 11.3185L13.75 18.2464V14.3185ZM10.9994 13.0685H11H14.25V15.6265V17.1987L15.4719 16.2094L20.7929 11.9014L21.5129 11.3185L20.7929 10.7356L15.4719 6.42758L14.25 5.43827V7.01048V9.56848L13.0008 9.56848L13 10.3185V9.56848H13.0004C11.7428 9.56713 10.4997 9.83746 9.35619 10.361C8.21256 10.8845 7.19554 11.649 6.37472 12.602L7.21933 13.7887C8.42251 13.3119 9.70519 13.0675 10.9994 13.0685ZM11 12.3185H14.25L8.54913 12.5933C9.35145 12.4104 10.1735 12.3178 11 12.3185Z" fill="white" stroke="black" stroke-width="1.5"/>
</g>
<defs>
<clipPath id="clip0_406_736">
<rect width="24" height="24" fill="none" transform="translate(0 0.318481)"/>
</clipPath>
</defs>
</svg>
