<svg viewBox="0 0 24 25" fill="none" xmlns="http://www.w3.org/2000/svg">
<path d="M2.75 20.5078V4.31848C2.75 3.96898 2.86569 3.68845 3.11783 3.43631C3.36997 3.18418 3.65049 3.06848 4 3.06848H20C20.3495 3.06848 20.63 3.18418 20.8822 3.43631C21.1343 3.68845 21.25 3.96898 21.25 4.31848V16.3185C21.25 16.668 21.1343 16.9485 20.8822 17.2007C20.63 17.4528 20.3495 17.5685 20 17.5685H6H5.68934L5.46967 17.7882L2.75 20.5078ZM20 17.0685H20.75V16.3185V4.31848V3.56848H20H4H3.25V4.31848V17.4435V19.2264L4.52447 17.9796L5.45584 17.0685H20Z" fill="#1D1B20" stroke="black" stroke-width="1.5"/>
</svg>
