<svg viewBox="0 0 23 22" fill="none" xmlns="http://www.w3.org/2000/svg">
<g clip-path="url(#clip0_201_30)">
<path d="M22.1739 11.2671C22.1739 14.1136 21.043 16.8436 19.0303 18.8565C17.0175 20.8691 14.2875 22 11.441 22C8.59443 22 5.86448 20.8691 3.85167 18.8565C1.83885 16.8436 0.708069 14.1136 0.708069 11.2671C0.708069 8.42054 1.83885 5.69059 3.85167 3.67778C5.86448 1.66496 8.59443 0.53418 11.441 0.53418C14.2875 0.53418 17.0175 1.66496 19.0303 3.67778C21.043 5.69059 22.1739 8.42054 22.1739 11.2671Z" fill="url(#paint0_linear_201_30)"/>
<g filter="url(#filter0_d_201_30)">
<path d="M7.68469 18.7144C7.68469 19.4228 9.36573 19.3101 11.4412 19.3101C13.5153 19.3101 15.1977 19.4228 15.1977 18.7144C15.1977 17.8611 13.5153 17.3043 11.4412 17.3043C9.36573 17.3043 7.68469 17.8611 7.68469 18.7144Z" fill="black"/>
</g>
<path d="M7.68469 18.7144C7.68469 19.4228 9.36573 19.3101 11.4412 19.3101C13.5153 19.3101 15.1977 19.4228 15.1977 18.7144C15.1977 17.8611 13.5153 17.3043 11.4412 17.3043C9.36573 17.3043 7.68469 17.8611 7.68469 18.7144Z" fill="url(#paint1_linear_201_30)"/>
<path d="M5.53745 13.7241C5.53745 12.6629 6.25926 11.8043 7.1474 11.8043C8.03689 11.8043 8.75734 12.6629 8.75734 13.7241C8.75734 14.1655 8.63257 14.5734 8.41925 14.8967C8.31957 15.0456 8.16708 15.1511 7.99261 15.1918C7.79136 15.2401 7.4922 15.2925 7.1474 15.2925C6.80261 15.2925 6.50209 15.2401 6.30219 15.1918C6.12754 15.1515 5.97493 15.0459 5.87554 14.8967C5.65093 14.5472 5.53342 14.1396 5.53745 13.7241ZM14.1238 13.7241C14.1238 12.6629 14.8443 11.8043 15.7337 11.8043C16.6219 11.8043 17.3437 12.6629 17.3437 13.7241C17.3437 14.1655 17.2176 14.5734 17.0056 14.8967C16.9062 15.0459 16.7536 15.1515 16.579 15.1918C16.302 15.2581 16.0184 15.2918 15.7337 15.2925C15.3889 15.2925 15.0898 15.2401 14.8885 15.1918C14.7137 15.1511 14.5608 15.0456 14.4606 14.8967C14.2369 14.5468 14.12 14.1393 14.1238 13.7241Z" fill="url(#paint2_linear_201_30)"/>
<g filter="url(#filter1_i_201_30)">
<path d="M5.53745 13.7241C5.53745 12.6629 6.25926 11.8043 7.1474 11.8043C8.03689 11.8043 8.75734 12.6629 8.75734 13.7241C8.75734 14.1655 8.63257 14.5734 8.41925 14.8967C8.31957 15.0456 8.16708 15.1511 7.99261 15.1918C7.79136 15.2401 7.4922 15.2925 7.1474 15.2925C6.80261 15.2925 6.50209 15.2401 6.30219 15.1918C6.12754 15.1515 5.97493 15.0459 5.87554 14.8967C5.65093 14.5472 5.53342 14.1396 5.53745 13.7241ZM14.1238 13.7241C14.1238 12.6629 14.8443 11.8043 15.7337 11.8043C16.6219 11.8043 17.3437 12.6629 17.3437 13.7241C17.3437 14.1655 17.2176 14.5734 17.0056 14.8967C16.9062 15.0459 16.7536 15.1515 16.579 15.1918C16.302 15.2581 16.0184 15.2918 15.7337 15.2925C15.3889 15.2925 15.0898 15.2401 14.8885 15.1918C14.7137 15.1511 14.5608 15.0456 14.4606 14.8967C14.2369 14.5468 14.12 14.1393 14.1238 13.7241Z" fill="black"/>
</g>
<path d="M7.37385 13.0549C7.38043 13.0863 7.38356 13.1182 7.38324 13.1502C7.38324 13.4199 7.14712 13.6412 6.85465 13.6412C6.56352 13.6412 6.32739 13.4199 6.32739 13.1502C6.32739 13.0388 6.36764 12.9355 6.43472 12.8537C6.73524 12.9248 7.05052 12.9932 7.37385 13.0549ZM15.3243 13.6412C15.0412 13.6412 14.8104 13.436 14.797 13.1744C15.1445 13.1234 15.4893 13.0603 15.8247 12.9919C15.8432 13.043 15.8523 13.0971 15.8515 13.1515C15.8515 13.4199 15.6167 13.6412 15.3243 13.6412Z" fill="#4F4F67"/>
<g filter="url(#filter2_d_201_30)">
<path d="M12.782 10.7304C12.782 10.1321 13.0007 9.92547 13.379 9.92547C13.7547 9.92547 13.9344 10.2958 14.0579 11.3556C15.5712 11.3556 18.1337 10.6392 18.3806 10.6392C18.6194 10.6392 18.7522 10.7532 18.8059 10.9974C18.8528 11.2094 18.775 11.4106 18.5094 11.5341C17.6762 11.9191 15.2318 12.7885 13.1644 12.7885C12.939 12.7885 12.782 12.6731 12.782 12.3846V10.7304ZM8.8229 11.3556C8.94633 10.2958 9.12611 9.92547 9.50176 9.92547C9.88009 9.92547 10.0988 10.1321 10.0988 10.7304V12.3846C10.0988 12.6731 9.94181 12.7885 9.71642 12.7885C7.64899 12.7885 5.20457 11.9191 4.37143 11.5341C4.10579 11.4106 4.02798 11.2094 4.07493 10.9974C4.12994 10.7532 4.26276 10.6392 4.50023 10.6392C4.74708 10.6392 7.30956 11.3556 8.8229 11.3556Z" fill="black"/>
</g>
<path d="M12.782 10.7304C12.782 10.1321 13.0007 9.92547 13.379 9.92547C13.7547 9.92547 13.9344 10.2958 14.0579 11.3556C15.5712 11.3556 18.1337 10.6392 18.3806 10.6392C18.6194 10.6392 18.7522 10.7532 18.8059 10.9974C18.8528 11.2094 18.775 11.4106 18.5094 11.5341C17.6762 11.9191 15.2318 12.7885 13.1644 12.7885C12.939 12.7885 12.782 12.6731 12.782 12.3846V10.7304ZM8.8229 11.3556C8.94633 10.2958 9.12611 9.92547 9.50176 9.92547C9.88009 9.92547 10.0988 10.1321 10.0988 10.7304V12.3846C10.0988 12.6731 9.94181 12.7885 9.71642 12.7885C7.64899 12.7885 5.20457 11.9191 4.37143 11.5341C4.10579 11.4106 4.02798 11.2094 4.07493 10.9974C4.12994 10.7532 4.26276 10.6392 4.50023 10.6392C4.74708 10.6392 7.30956 11.3556 8.8229 11.3556Z" fill="url(#paint3_linear_201_30)"/>
</g>
<defs>
<filter id="filter0_d_201_30" x="6.34308" y="17.3043" width="10.1963" height="4.6955" filterUnits="userSpaceOnUse" color-interpolation-filters="sRGB">
<feFlood flood-opacity="0" result="BackgroundImageFix"/>
<feColorMatrix in="SourceAlpha" type="matrix" values="0 0 0 0 0 0 0 0 0 0 0 0 0 0 0 0 0 0 127 0" result="hardAlpha"/>
<feOffset dy="1.34161"/>
<feGaussianBlur stdDeviation="0.670807"/>
<feColorMatrix type="matrix" values="0 0 0 0 1 0 0 0 0 0.509681 0 0 0 0 0 0 0 0 0.371207 0"/>
<feBlend mode="normal" in2="BackgroundImageFix" result="effect1_dropShadow_201_30"/>
<feBlend mode="normal" in="SourceGraphic" in2="effect1_dropShadow_201_30" result="shape"/>
</filter>
<filter id="filter1_i_201_30" x="5.53735" y="11.8043" width="11.8063" height="3.48821" filterUnits="userSpaceOnUse" color-interpolation-filters="sRGB">
<feFlood flood-opacity="0" result="BackgroundImageFix"/>
<feBlend mode="normal" in="SourceGraphic" in2="BackgroundImageFix" result="shape"/>
<feColorMatrix in="SourceAlpha" type="matrix" values="0 0 0 0 0 0 0 0 0 0 0 0 0 0 0 0 0 0 127 0" result="hardAlpha"/>
<feOffset/>
<feGaussianBlur stdDeviation="0.670807"/>
<feComposite in2="hardAlpha" operator="arithmetic" k2="-1" k3="1"/>
<feColorMatrix type="matrix" values="0 0 0 0 0.0387428 0 0 0 0 0.0406183 0 0 0 0 0.0875053 0 0 0 1 0"/>
<feBlend mode="normal" in2="shape" result="effect1_innerShadow_201_30"/>
</filter>
<filter id="filter2_d_201_30" x="3.92791" y="9.92547" width="15.025" height="3.80213" filterUnits="userSpaceOnUse" color-interpolation-filters="sRGB">
<feFlood flood-opacity="0" result="BackgroundImageFix"/>
<feColorMatrix in="SourceAlpha" type="matrix" values="0 0 0 0 0 0 0 0 0 0 0 0 0 0 0 0 0 0 127 0" result="hardAlpha"/>
<feOffset dy="0.804968"/>
<feGaussianBlur stdDeviation="0.0670807"/>
<feColorMatrix type="matrix" values="0 0 0 0 0.565875 0 0 0 0 0.151272 0 0 0 0 0 0 0 0 0.15024 0"/>
<feBlend mode="normal" in2="BackgroundImageFix" result="effect1_dropShadow_201_30"/>
<feBlend mode="normal" in="SourceGraphic" in2="effect1_dropShadow_201_30" result="shape"/>
</filter>
<linearGradient id="paint0_linear_201_30" x1="11.441" y1="0.53418" x2="11.441" y2="14.9579" gradientUnits="userSpaceOnUse">
<stop stop-color="#E04300"/>
<stop offset="1" stop-color="#FFA320"/>
</linearGradient>
<linearGradient id="paint1_linear_201_30" x1="11.4409" y1="17.5767" x2="11.4409" y2="19.3168" gradientUnits="userSpaceOnUse">
<stop stop-color="#3D0D00"/>
<stop offset="1" stop-color="#661C04"/>
</linearGradient>
<linearGradient id="paint2_linear_201_30" x1="11.441" y1="11.8037" x2="11.441" y2="15.2919" gradientUnits="userSpaceOnUse">
<stop stop-color="#191A33"/>
<stop offset="0.872" stop-color="#3B426A"/>
</linearGradient>
<linearGradient id="paint3_linear_201_30" x1="16.2909" y1="13.0555" x2="16.2909" y2="9.92547" gradientUnits="userSpaceOnUse">
<stop stop-color="#9A2F00"/>
<stop offset="1" stop-color="#D44800"/>
</linearGradient>
<clipPath id="clip0_201_30">
<rect width="21.4658" height="21.4658" fill="white" transform="translate(0.708069 0.53418)"/>
</clipPath>
</defs>
</svg>
