<svg width="24" height="24" viewBox="0 0 24 24" fill="none" xmlns="http://www.w3.org/2000/svg">
<g clip-path="url(#clip0_253_2369)">
<path d="M10.1298 15.842L9.34178 18.782L7.41078 18.264L8.19778 15.325C7.01975 14.8905 5.9249 14.2573 4.96078 13.453L2.80778 15.607L1.39278 14.192L3.54678 12.039C2.33086 10.5827 1.51387 8.83572 1.17578 6.96896L2.07578 6.80396C4.965 8.88713 8.43787 10.0056 11.9998 9.99996C15.7038 9.99996 19.1308 8.81495 21.9238 6.80396L22.8238 6.96796C22.4861 8.83497 21.6695 10.5823 20.4538 12.039L22.6068 14.192L21.1918 15.607L19.0388 13.453C18.0747 14.2573 16.9798 14.8905 15.8018 15.325L16.5888 18.265L14.6578 18.782L13.8698 15.842C12.6321 16.054 11.3674 16.054 10.1298 15.842Z" fill="#1E1E20"/>
</g>
<defs>
<clipPath id="clip0_253_2369">
<rect width="24" height="24" fill="white"/>
</clipPath>
</defs>
</svg>
