<svg viewBox="0 0 24 24" fill="none" xmlns="http://www.w3.org/2000/svg">
<g clip-path="url(#clip0_253_2360)">
<path d="M1 12C1.94 6.88 6.427 3 11.819 3C17.211 3 21.697 6.88 22.638 12C21.698 17.12 17.211 21 11.819 21C6.427 21 1.941 17.12 1 12ZM11.819 17C13.1451 17 14.4169 16.4732 15.3545 15.5355C16.2922 14.5979 16.819 13.3261 16.819 12C16.819 10.6739 16.2922 9.40215 15.3545 8.46447C14.4169 7.52678 13.1451 7 11.819 7C10.4929 7 9.22115 7.52678 8.28347 8.46447C7.34578 9.40215 6.819 10.6739 6.819 12C6.819 13.3261 7.34578 14.5979 8.28347 15.5355C9.22115 16.4732 10.4929 17 11.819 17ZM11.819 15C11.0234 15 10.2603 14.6839 9.69768 14.1213C9.13507 13.5587 8.819 12.7956 8.819 12C8.819 11.2044 9.13507 10.4413 9.69768 9.87868C10.2603 9.31607 11.0234 9 11.819 9C12.6146 9 13.3777 9.31607 13.9403 9.87868C14.5029 10.4413 14.819 11.2044 14.819 12C14.819 12.7956 14.5029 13.5587 13.9403 14.1213C13.3777 14.6839 12.6146 15 11.819 15Z" fill="currentColor"/>
</g>
<defs>
<clipPath id="clip0_253_2360">
<rect width="24" height="24" fill="white"/>
</clipPath>
</defs>
</svg>
