<svg viewBox="0 0 25 24" fill="none" xmlns="http://www.w3.org/2000/svg">
<path fill-rule="evenodd" clip-rule="evenodd" d="M20.7932 0C22.6007 0 24.0659 1.46525 24.0659 3.27273V20.7273C24.0659 22.5348 22.6007 24 20.7932 24H3.33865C1.53117 24 0.065918 22.5348 0.065918 20.7273V3.27273C0.065918 1.46525 1.53117 0 3.33865 0H20.7932ZM20.7932 2.18182C21.3957 2.18182 21.8841 2.67024 21.8841 3.27273V20.7273C21.8841 21.3298 21.3957 21.8182 20.7932 21.8182H15.3386V14.1817H17.6036C18.0731 14.1817 18.49 13.8813 18.6385 13.4357L19.1218 11.9859C19.2984 11.4561 18.9041 10.909 18.3456 10.909H15.3386V8.72719C15.3386 8.18173 15.8841 7.63628 16.4296 7.63628H18.6114C19.2139 7.63628 19.7023 7.14785 19.7023 6.54537V5.79701C19.7023 5.44463 19.4772 5.12869 19.1364 5.03877C17.7065 4.6614 16.4296 4.6614 16.4296 4.6614C13.7023 4.6614 12.0659 6.54537 12.0659 8.18173V10.909H9.8841C9.28161 10.909 8.79319 11.3974 8.79319 11.9999V13.0908C8.79319 13.6933 9.2816 14.1817 9.8841 14.1817H12.0659V21.8182H3.33865C2.73616 21.8182 2.24774 21.3298 2.24774 20.7273V3.27273C2.24774 2.67024 2.73616 2.18182 3.33865 2.18182H20.7932Z" fill="currentColor"/>
</svg>
