<svg viewBox="0 0 24 25" fill="none" xmlns="http://www.w3.org/2000/svg">
<g clip-path="url(#clip0_406_732)">
<path d="M13.3343 19.5567L13.3332 19.5574C13.0287 19.7489 12.7275 19.933 12.3839 20.1378L12 20.3665L11.6161 20.1378C11.2729 19.9333 10.9714 19.749 10.6662 19.5561C9.7672 18.9897 8.94904 18.421 8.1784 17.8087L8.17807 17.8084C5.1078 15.3658 3.25 12.5834 3.25 9.31848C3.25 6.64098 5.06943 4.56848 7.5 4.56848C8.8203 4.56848 10.1651 5.25321 11.1157 6.20152L11.1163 6.20215L12 7.08582L12.8837 6.20215L12.8843 6.20152C13.8349 5.25321 15.1797 4.56848 16.5 4.56848C18.9547 4.56848 20.75 6.62626 20.75 9.31848C20.75 12.5823 18.8934 15.3656 15.821 17.8084L13.3343 19.5567ZM13.3343 19.5567C14.2328 18.9897 15.051 18.4211 15.8207 17.8086L13.3343 19.5567ZM11.4697 5.84881L12 6.37914L12.5303 5.84881C13.4405 4.93868 14.9008 4.06848 16.5 4.06848C19.0783 4.06848 21.25 6.18575 21.25 9.31848C21.25 12.5284 19.5343 15.0946 17.423 17.0853C15.5507 18.8506 13.4418 20.0953 12.0965 20.8893C12.0639 20.9085 12.0317 20.9275 12 20.9462C11.9683 20.9275 11.9361 20.9085 11.9035 20.8893C10.5582 20.0953 8.44929 18.8506 6.57701 17.0853C4.46572 15.0946 2.75 12.5284 2.75 9.31848C2.75 6.18921 4.9564 4.06848 7.5 4.06848C9.09924 4.06848 10.5595 4.93868 11.4697 5.84881Z" fill="white" stroke="#1E1E20" stroke-width="1.5"/>
</g>
<defs>
<clipPath id="clip0_406_732">
<rect width="24" height="24" fill="white" transform="translate(0 0.318481)"/>
</clipPath>
</defs>
</svg>
