<svg viewBox="0 0 24 25" fill="none" xmlns="http://www.w3.org/2000/svg">
    <g clip-path="url(#clip0_1141_7430)">
        <path
            d="M0.00335693 5.00049C0.00335693 4.20484 0.319428 3.44178 0.882037 2.87917C1.44465 2.31656 2.20771 2.00049 3.00336 2.00049H21.0034C21.799 2.00049 22.5621 2.31656 23.1247 2.87917C23.6873 3.44178 24.0034 4.20484 24.0034 5.00049V20.0005C24.0034 20.7961 23.6873 21.5592 23.1247 22.1218C22.5621 22.6844 21.799 23.0005 21.0034 23.0005H3.00336C2.20771 23.0005 1.44465 22.6844 0.882037 22.1218C0.319428 21.5592 0.00335693 20.7961 0.00335693 20.0005V5.00049ZM1.50336 18.5005V20.0005C1.50336 20.3983 1.66139 20.7798 1.9427 21.0611C2.224 21.3425 2.60553 21.5005 3.00336 21.5005H21.0034C21.4012 21.5005 21.7827 21.3425 22.064 21.0611C22.3453 20.7798 22.5034 20.3983 22.5034 20.0005V14.7505L16.8379 11.83C16.6972 11.7595 16.5379 11.7351 16.3826 11.7601C16.2273 11.7851 16.0838 11.8584 15.9724 11.9695L10.4074 17.5345L6.41736 14.8765C6.2733 14.7806 6.1005 14.7374 5.92827 14.7544C5.75603 14.7713 5.59496 14.8473 5.47236 14.9695L1.50336 18.5005ZM9.00336 8.75049C9.00336 8.15375 8.76631 7.58145 8.34435 7.1595C7.92239 6.73754 7.3501 6.50049 6.75336 6.50049C6.15662 6.50049 5.58432 6.73754 5.16237 7.1595C4.74041 7.58145 4.50336 8.15375 4.50336 8.75049C4.50336 9.34723 4.74041 9.91952 5.16237 10.3415C5.58432 10.7634 6.15662 11.0005 6.75336 11.0005C7.3501 11.0005 7.92239 10.7634 8.34435 10.3415C8.76631 9.91952 9.00336 9.34723 9.00336 8.75049Z"
            fill="currentColor" />
    </g>
    <defs>
        <clipPath id="clip0_1141_7430">
            <rect width="24" height="24" fill="white" transform="translate(0 0.5)" />
        </clipPath>
    </defs>
</svg>