<svg viewBox="0 0 25 24" fill="none" xmlns="http://www.w3.org/2000/svg">
<path fill-rule="evenodd" clip-rule="evenodd" d="M12.0659 18C15.3796 18 18.0659 15.3137 18.0659 12C18.0659 8.68629 15.3796 6 12.0659 6C8.75221 6 6.06592 8.68629 6.06592 12C6.06592 15.3137 8.75221 18 12.0659 18ZM12.0659 16C14.275 16 16.0659 14.2091 16.0659 12C16.0659 9.79086 14.275 8 12.0659 8C9.85678 8 8.06592 9.79086 8.06592 12C8.06592 14.2091 9.85678 16 12.0659 16Z" fill="currentColor"/>
<path d="M18.0659 5C17.5136 5 17.0659 5.44772 17.0659 6C17.0659 6.55228 17.5136 7 18.0659 7C18.6182 7 19.0659 6.55228 19.0659 6C19.0659 5.44772 18.6182 5 18.0659 5Z" fill="currentColor"/>
<path fill-rule="evenodd" clip-rule="evenodd" d="M1.71988 4.27606C1.06592 5.55953 1.06592 7.23969 1.06592 10.6V13.4C1.06592 16.7603 1.06592 18.4405 1.71988 19.7239C2.29512 20.8529 3.213 21.7708 4.34198 22.346C5.62545 23 7.30561 23 10.6659 23H13.4659C16.8262 23 18.5064 23 19.7898 22.346C20.9188 21.7708 21.8367 20.8529 22.4119 19.7239C23.0659 18.4405 23.0659 16.7603 23.0659 13.4V10.6C23.0659 7.23969 23.0659 5.55953 22.4119 4.27606C21.8367 3.14708 20.9188 2.2292 19.7898 1.65396C18.5064 1 16.8262 1 13.4659 1H10.6659C7.30561 1 5.62545 1 4.34198 1.65396C3.213 2.2292 2.29512 3.14708 1.71988 4.27606ZM13.4659 3H10.6659C8.95276 3 7.78817 3.00156 6.888 3.0751C6.01116 3.14674 5.56276 3.27659 5.24996 3.43597C4.49731 3.81947 3.88539 4.43139 3.50189 5.18404C3.34251 5.49684 3.21266 5.94524 3.14102 6.82208C3.06748 7.72225 3.06592 8.88684 3.06592 10.6V13.4C3.06592 15.1132 3.06748 16.2777 3.14102 17.1779C3.21266 18.0548 3.34251 18.5032 3.50189 18.816C3.88539 19.5686 4.49731 20.1805 5.24996 20.564C5.56276 20.7234 6.01116 20.8533 6.888 20.9249C7.78817 20.9984 8.95276 21 10.6659 21H13.4659C15.1791 21 16.3436 20.9984 17.2438 20.9249C18.1207 20.8533 18.5691 20.7234 18.8819 20.564C19.6345 20.1805 20.2464 19.5686 20.6299 18.816C20.7893 18.5032 20.9192 18.0548 20.9908 17.1779C21.0643 16.2777 21.0659 15.1132 21.0659 13.4V10.6C21.0659 8.88684 21.0643 7.72225 20.9908 6.82208C20.9192 5.94524 20.7893 5.49684 20.6299 5.18404C20.2464 4.43139 19.6345 3.81947 18.8819 3.43597C18.5691 3.27659 18.1207 3.14674 17.2438 3.0751C16.3436 3.00156 15.1791 3 13.4659 3Z" fill="currentColor"/>
</svg>
