<svg viewBox="0 0 25 24" fill="none" xmlns="http://www.w3.org/2000/svg">
<path d="M21.0562 23.9984H3.06709C2.6701 24.0116 2.27471 23.9422 1.90591 23.7947C1.53711 23.6471 1.20294 23.4247 0.924518 23.1414C0.643377 22.865 0.422189 22.5336 0.27474 22.1679C0.12729 21.8022 0.0567403 21.4101 0.067487 21.016V3.00118C0.0543575 2.60419 0.123746 2.20879 0.271265 1.83999C0.418784 1.4712 0.641224 1.13702 0.924518 0.8586C1.20294 0.575306 1.53711 0.352866 1.90591 0.205347C2.27471 0.0578283 2.6701 -0.0115605 3.06709 0.00156898H21.0647C21.4617 -0.0115605 21.8571 0.0578283 22.2259 0.205347C22.5947 0.352866 22.9289 0.575306 23.2073 0.8586C23.4906 1.13702 23.7131 1.4712 23.8606 1.83999C24.0081 2.20879 24.0775 2.60419 24.0643 3.00118V20.9988C24.0598 21.7945 23.7412 22.5561 23.1778 23.1179C22.6144 23.6797 21.8518 23.9962 21.0562 23.9984ZM6.16097 8.04909C6.411 8.0605 6.66082 8.02247 6.89612 7.93717C7.13143 7.85187 7.34759 7.72099 7.53223 7.55201C7.69687 7.40259 7.82787 7.21986 7.91652 7.01596C8.00518 6.81205 8.04946 6.59163 8.04644 6.36931C8.0317 5.90634 7.83818 5.46709 7.50651 5.14375C7.15276 4.82448 6.68862 4.65542 6.2124 4.67239C5.71203 4.64958 5.22174 4.81812 4.84115 5.14375C4.67741 5.30166 4.54916 5.49262 4.46493 5.70393C4.38071 5.91524 4.34243 6.14206 4.35264 6.36931C4.34898 6.58936 4.39043 6.80782 4.47445 7.01123C4.55847 7.21465 4.68327 7.39869 4.84115 7.55201C5.01634 7.71946 5.22355 7.8498 5.45034 7.93521C5.67714 8.02063 5.91885 8.05936 6.16097 8.04909ZM7.78076 9.42891H4.51548V19.319H7.78076V9.42891ZM19.6506 13.6626C19.7633 12.4244 19.3812 11.1919 18.5879 10.2345C18.2379 9.87598 17.8172 9.59409 17.3524 9.40672C16.8877 9.21935 16.3891 9.1306 15.8883 9.14609C15.1732 9.08424 14.4602 9.28536 13.8828 9.71173C13.5105 10.0378 13.1872 10.416 12.9229 10.8344V9.42891H9.65766V19.319H12.9229V13.3627C12.9177 13.2344 12.9473 13.107 13.0087 12.9942C13.1414 12.6669 13.3465 12.3739 13.6086 12.1371C13.9117 11.8743 14.3049 11.7391 14.7056 11.76C14.9571 11.7384 15.2096 11.787 15.4351 11.9005C15.6606 12.014 15.8501 12.1879 15.9825 12.4028C16.2524 12.9018 16.3827 13.4643 16.3596 14.0312V19.3019H19.6592L19.6506 13.6626ZM12.9229 10.8859C12.9213 10.8788 12.9215 10.8714 12.9235 10.8644C12.9255 10.8574 12.9292 10.851 12.9344 10.8459C12.9395 10.8407 12.9459 10.837 12.9529 10.835C12.9599 10.833 12.9673 10.8328 12.9744 10.8344V10.8859H12.9229Z" fill="currentColor"/>
</svg>
