<svg viewBox="0 0 24 25" fill="none" xmlns="http://www.w3.org/2000/svg">
    <path fill-rule="evenodd" clip-rule="evenodd"
        d="M7.12499 4.05506C6.01598 4.69526 5.04392 5.54762 4.26431 6.56348C3.48472 7.57934 2.91284 8.73881 2.58133 9.97569C1.91183 12.4737 2.26207 15.1353 3.55499 17.3751C4.84792 19.6149 6.97763 21.2493 9.47563 21.9187C11.9736 22.5882 14.6352 22.2381 16.875 20.9451C17.1324 20.808 17.433 20.7762 17.7133 20.8564C17.9937 20.9367 18.2319 21.1227 18.3778 21.3753C18.5238 21.6277 18.5659 21.927 18.4954 22.21C18.4249 22.4929 18.2473 22.7376 18 22.8921C15.7312 24.2013 13.0964 24.7323 10.4977 24.4039C7.8989 24.0754 5.47898 22.9057 3.60724 21.0733C1.73551 19.2409 0.514759 16.8463 0.131341 14.255C-0.252077 11.6638 0.222891 9.01835 1.48375 6.72234C2.7446 4.42635 4.7221 2.60597 7.11439 1.53906C9.50668 0.472145 12.1824 0.217303 14.733 0.813428C17.2837 1.40955 19.5693 2.8239 21.2409 4.84059C22.9125 6.8573 23.8783 9.36557 23.991 11.9826C23.997 12.0298 24 12.0774 24 12.1251V12.2811C24.001 12.3761 24.001 12.4711 24 12.5661V14.3751C24.0006 15.2686 23.7109 16.138 23.1747 16.8528C22.6386 17.5675 21.8848 18.0889 21.0268 18.3384C20.1688 18.588 19.2531 18.5521 18.4173 18.2364C17.5815 17.9206 16.8706 17.3421 16.392 16.5876C15.4399 17.6104 14.1607 18.2689 12.7751 18.4495C11.3894 18.63 9.98417 18.3211 8.80184 17.5764C7.61953 16.8315 6.73426 15.6973 6.29878 14.3695C5.86331 13.0418 5.90495 11.6036 6.41651 10.3032C6.92807 9.00284 7.87747 7.9218 9.1009 7.24661C10.3243 6.57143 11.7451 6.34443 13.118 6.60482C14.4909 6.86519 15.7299 7.5966 16.6212 8.67284C17.5123 9.74909 18.0001 11.1027 18 12.5001V14.3751C18 14.8723 18.1975 15.3492 18.5491 15.7009C18.9007 16.0525 19.3777 16.2501 19.875 16.2501C20.3722 16.2501 20.8492 16.0525 21.2008 15.7009C21.5524 15.3492 21.75 14.8723 21.75 14.3751V12.3006C21.7155 10.6061 21.2398 8.94983 20.37 7.49522C19.5001 6.04061 18.2662 4.83786 16.7898 4.0056C15.3133 3.17336 13.6454 2.74034 11.9506 2.74928C10.2558 2.7582 8.59258 3.20879 7.12499 4.05656V4.05506ZM15.75 12.5001C15.75 11.5055 15.3549 10.5517 14.6516 9.8484C13.9484 9.14514 12.9946 8.75006 12 8.75006C11.0054 8.75006 10.0516 9.14514 9.34834 9.8484C8.64508 10.5517 8.24999 11.5055 8.24999 12.5001C8.24999 13.4946 8.64508 14.4485 9.34834 15.1517C10.0516 15.855 11.0054 16.2501 12 16.2501C12.9946 16.2501 13.9484 15.855 14.6516 15.1517C15.3549 14.4485 15.75 13.4946 15.75 12.5001Z"
        fill="currentColor" />
</svg>