<svg viewBox="0 0 24 24" fill="none" xmlns="http://www.w3.org/2000/svg">
<path d="M12 2.99927C11.0054 2.99927 10.0516 3.39436 9.34835 4.09762C8.64509 4.80088 8.25 5.75471 8.25 6.74927V11.9993C8.25 12.9938 8.64509 13.9477 9.34835 14.6509C10.0516 15.3542 11.0054 15.7493 12 15.7493C12.9946 15.7493 13.9484 15.3542 14.6516 14.6509C15.3549 13.9477 15.75 12.9938 15.75 11.9993V6.74927C15.75 5.75471 15.3549 4.80088 14.6516 4.09762C13.9484 3.39436 12.9946 2.99927 12 2.99927ZM6 11.2493C6.19891 11.2493 6.38968 11.3283 6.53033 11.4689C6.67098 11.6096 6.75 11.8004 6.75 11.9993C6.75 13.3917 7.30312 14.727 8.28769 15.7116C9.27226 16.6961 10.6076 17.2493 12 17.2493C13.3924 17.2493 14.7277 16.6961 15.7123 15.7116C16.6969 14.727 17.25 13.3917 17.25 11.9993C17.25 11.8004 17.329 11.6096 17.4697 11.4689C17.6103 11.3283 17.8011 11.2493 18 11.2493C18.1989 11.2493 18.3897 11.3283 18.5303 11.4689C18.671 11.6096 18.75 11.8004 18.75 11.9993C18.7503 13.6598 18.1385 15.2623 17.0316 16.5001C15.9247 17.7379 14.4003 18.5243 12.75 18.7088V20.2493C12.75 20.4482 12.671 20.6389 12.5303 20.7796C12.3897 20.9202 12.1989 20.9993 12 20.9993C11.8011 20.9993 11.6103 20.9202 11.4697 20.7796C11.329 20.6389 11.25 20.4482 11.25 20.2493V18.7088C9.59971 18.5243 8.07534 17.7379 6.96841 16.5001C5.86149 15.2623 5.24968 13.6598 5.25 11.9993C5.25 11.8004 5.32902 11.6096 5.46967 11.4689C5.61032 11.3283 5.80109 11.2493 6 11.2493Z" fill="currentColor"/>
</svg>
