<svg viewBox="0 0 19 4" fill="none" xmlns="http://www.w3.org/2000/svg">
    <path
        d="M2.32053 3.09559C3.21737 3.09559 3.9444 2.42219 3.9444 1.5915C3.9444 0.760806 3.21737 0.0874023 2.32053 0.0874023C1.42369 0.0874023 0.696655 0.760806 0.696655 1.5915C0.696655 2.42219 1.42369 3.09559 2.32053 3.09559Z"
        fill="currentColor" />
    <path
        d="M9.35732 3.09559C10.2542 3.09559 10.9812 2.42219 10.9812 1.5915C10.9812 0.760806 10.2542 0.0874023 9.35732 0.0874023C8.46047 0.0874023 7.73344 0.760806 7.73344 1.5915C7.73344 2.42219 8.46047 3.09559 9.35732 3.09559Z"
        fill="currentColor" />
    <path
        d="M18.018 1.5915C18.018 2.42219 17.2909 3.09559 16.3941 3.09559C15.4973 3.09559 14.7702 2.42219 14.7702 1.5915C14.7702 0.760806 15.4973 0.0874023 16.3941 0.0874023C17.2909 0.0874023 18.018 0.760806 18.018 1.5915Z"
        fill="currentColor" />
</svg>