<svg viewBox="0 0 34 16" fill="none" xmlns="http://www.w3.org/2000/svg">
<path d="M33.0198 10.6219L32.6485 12.5054C32.2995 14.2711 30.768 15.4196 29.0704 15.1895L25.6889 14.7301C24.217 14.5294 22.9862 13.3356 22.6467 11.7797L21.7039 7.4454C20.1722 6.7003 18.4738 6.33173 16.6094 6.33823C14.8141 6.32852 13.0352 6.71633 11.3782 7.4787L10.636 11.4904C10.3539 13.009 9.18359 14.1157 7.73453 14.233L4.35664 14.5108C2.6702 14.6484 1.0871 13.4213 0.65114 11.6403L0.183267 9.73254C-0.281567 7.83265 0.219999 5.86068 1.50137 4.5588C4.52645 1.4811 9.47962 0.0393678 16.364 0.227687C23.2587 0.416692 28.2933 2.13988 31.4617 5.3953C32.7952 6.76484 33.3889 8.75278 33.0198 10.6219Z" fill="currentColor"/>
</svg>
