<svg viewBox="0 0 24 25" fill="none" xmlns="http://www.w3.org/2000/svg">
<path d="M12.89 6.19849H5.10999C3.39999 6.19849 2 7.59847 2 9.30847V20.6685M12.89 6.19849C14.6 6.19849 16 7.59847 15.99 9.30847V20.6685C15.99 22.1185 14.95 22.7385 13.68 22.0285L9.75 19.8385C9.34 19.6085 8.65999 19.6085 8.23999 19.8385M12.89 6.19849C14.6 6.19849 16 7.59847 16 9.30847M12.89 6.19849H8V5.42847C8 3.71847 9.39999 2.31848 11.11 2.31848H18.89C20.6 2.31848 22 3.71847 22 5.42847V16.7885C22 18.2385 20.96 18.8485 19.69 18.1485L16 16.0885V9.30847M2 20.6685C2 22.1185 3.04 22.7385 4.31 22.0285M2 20.6685C2 22.1185 3.04 22.7285 4.31 22.0285M4.31 22.0285L8.23999 19.8385M8.23999 19.8385C8.65999 19.6085 9.34001 19.6085 9.76001 19.8385L13.69 22.0285C14.96 22.7285 16 22.1185 16 20.6685V9.30847" stroke="#1E1E20" stroke-width="1.5" stroke-linecap="round" stroke-linejoin="round"/>
</svg>
