<svg viewBox="0 0 21 24" fill="none" xmlns="http://www.w3.org/2000/svg">
<path d="M18.0756 5.13274C17.9154 5.04902 17.7594 4.95725 17.6083 4.85776C17.1689 4.564 16.766 4.21786 16.4083 3.82681C15.5133 2.79136 15.179 1.74091 15.0559 1.00545H15.0609C14.958 0.39498 15.0005 0 15.007 0H10.9307V15.9382C10.9307 16.1522 10.9307 16.3637 10.9218 16.5727C10.9218 16.5987 10.9193 16.6227 10.9178 16.6507C10.9178 16.6622 10.9178 16.6742 10.9153 16.6862C10.9153 16.6892 10.9153 16.6922 10.9153 16.6952C10.8724 17.267 10.6911 17.8194 10.3874 18.3038C10.0837 18.7882 9.66701 19.1897 9.17386 19.473C8.6599 19.7687 8.07859 19.9238 7.48727 19.923C5.58807 19.923 4.04882 18.3571 4.04882 16.4232C4.04882 14.4893 5.58807 12.9234 7.48727 12.9234C7.84678 12.923 8.20408 12.9802 8.54591 13.0928L8.55085 8.89606C7.51316 8.76052 6.45896 8.84391 5.45474 9.14096C4.45053 9.43802 3.51809 9.94229 2.71626 10.622C2.01367 11.2392 1.423 11.9758 0.970829 12.7984C0.798758 13.0983 0.149536 14.3038 0.0709178 16.2602C0.0214722 17.3706 0.351275 18.5211 0.508512 18.9966V19.0066C0.607403 19.2865 0.990607 20.242 1.61511 21.0474C2.11868 21.6936 2.71363 22.2611 3.38081 22.7319V22.7219L3.3907 22.7319C5.36408 24.0878 7.55205 23.9988 7.55205 23.9988C7.9308 23.9833 9.19958 23.9988 10.6404 23.3083C12.2385 22.5429 13.1483 21.4024 13.1483 21.4024C13.7295 20.721 14.1917 19.9444 14.515 19.106C14.8838 18.1256 15.007 16.9497 15.007 16.4797V8.0241C15.0564 8.0541 15.715 8.49458 15.715 8.49458C15.715 8.49458 16.6639 9.10955 18.1443 9.51003C19.2064 9.79501 20.6373 9.85501 20.6373 9.85501V5.76321C20.136 5.81821 19.1179 5.65822 18.0756 5.13274Z" fill="currentColor"/>
</svg>
