<svg viewBox="0 0 17 13" fill="none" xmlns="http://www.w3.org/2000/svg">
    <path d="M1.21875 12.9996C0.89375 12.9996 0.609375 12.8778 0.365625 12.634C0.121875 12.3903 0 12.1059 0 11.7809V1.21838C0 0.893384 0.121875 0.609009 0.365625 0.365259C0.609375 0.121509 0.89375 -0.000366211 1.21875 -0.000366211H11.7812C12.1062 -0.000366211 12.3906 0.121509 12.6344 0.365259C12.8781 0.609009 13 0.893384 13 1.21838V5.58557L16.25 2.33557V10.6637L13 7.4137V11.7809C13 12.1059 12.8781 12.3903 12.6344 12.634C12.3906 12.8778 12.1062 12.9996 11.7812 12.9996H1.21875Z" fill="currentColor"/>
    </svg>
    