<svg viewBox="0 0 24 25" fill="none" xmlns="http://www.w3.org/2000/svg">
<path d="M9 22.8185H15C20 22.8185 22 20.8185 22 15.8185V9.81848C22 4.81848 20 2.81848 15 2.81848H9C4 2.81848 2 4.81848 2 9.81848V15.8185C2 20.8185 4 22.8185 9 22.8185Z" stroke="#464646" stroke-width="1.5" stroke-miterlimit="10" stroke-linecap="round" stroke-linejoin="round"/>
<path d="M15.5 10.5685C16.3284 10.5685 17 9.89691 17 9.06848C17 8.24005 16.3284 7.56848 15.5 7.56848C14.6716 7.56848 14 8.24005 14 9.06848C14 9.89691 14.6716 10.5685 15.5 10.5685Z" stroke="#464646" stroke-width="1.5" stroke-miterlimit="10" stroke-linecap="round" stroke-linejoin="round"/>
<path d="M8.5 10.5685C9.32843 10.5685 10 9.89691 10 9.06848C10 8.24005 9.32843 7.56848 8.5 7.56848C7.67157 7.56848 7 8.24005 7 9.06848C7 9.89691 7.67157 10.5685 8.5 10.5685Z" stroke="#464646" stroke-width="1.5" stroke-miterlimit="10" stroke-linecap="round" stroke-linejoin="round"/>
<path d="M8.4 14.1185H15.6C16.1 14.1185 16.5 14.5185 16.5 15.0185C16.5 17.5085 14.49 19.5185 12 19.5185C9.51 19.5185 7.5 17.5085 7.5 15.0185C7.5 14.5185 7.9 14.1185 8.4 14.1185Z" stroke="#464646" stroke-width="1.5" stroke-miterlimit="10" stroke-linecap="round" stroke-linejoin="round"/>
</svg>
