<svg viewBox="0 0 18 19" fill="none" xmlns="http://www.w3.org/2000/svg">
    <path
        d="M16.9767 8.87423L1.41188 0.622923C1.28989 0.558237 1.15286 0.532319 1.0173 0.54829C0.881733 0.56426 0.753414 0.621437 0.647789 0.712937C0.546918 0.80257 0.471629 0.920259 0.430384 1.05277C0.38914 1.18529 0.383575 1.32737 0.414317 1.46306L2.28917 8.79171H10.2909V10.2919H2.28917L0.386018 17.5981C0.357171 17.7114 0.353804 17.8303 0.376187 17.9453C0.39857 18.0602 0.446079 18.168 0.514894 18.2599C0.583708 18.3518 0.671908 18.4254 0.772402 18.4746C0.872896 18.5238 0.982879 18.5473 1.09351 18.5433C1.20426 18.5425 1.31331 18.5143 1.41188 18.4607L16.9767 10.2094C17.0926 10.1465 17.1898 10.0509 17.2577 9.93306C17.3256 9.81527 17.3616 9.67989 17.3616 9.54183C17.3616 9.40377 17.3256 9.2684 17.2577 9.1506C17.1898 9.03281 17.0926 8.93717 16.9767 8.87423Z"
        fill="currentColor" />
</svg>