<svg viewBox="0 0 24 25" fill="none" xmlns="http://www.w3.org/2000/svg">
    <path fill-rule="evenodd" clip-rule="evenodd"
        d="M2.25 12.5C2.25 9.91413 3.27723 7.43419 5.10571 5.60571C6.93419 3.77723 9.41413 2.75 12 2.75C14.5859 2.75 17.0658 3.77723 18.8943 5.60571C20.7228 7.43419 21.75 9.91413 21.75 12.5C21.75 15.0859 20.7228 17.5658 18.8943 19.3943C17.0658 21.2228 14.5859 22.25 12 22.25C9.41413 22.25 6.93419 21.2228 5.10571 19.3943C3.27723 17.5658 2.25 15.0859 2.25 12.5ZM12 0.5C8.8174 0.5 5.76516 1.76428 3.51472 4.01472C1.26428 6.26516 0 9.3174 0 12.5C0 15.6826 1.26428 18.7349 3.51472 20.9854C5.76516 23.2357 8.8174 24.5 12 24.5C15.1826 24.5 18.2349 23.2357 20.4854 20.9854C22.7357 18.7349 24 15.6826 24 12.5C24 9.3174 22.7357 6.26516 20.4854 4.01472C18.2349 1.76428 15.1826 0.5 12 0.5ZM7.5 12.5C7.89783 12.5 8.27936 12.342 8.56067 12.0607C8.84196 11.7794 9 11.3978 9 11C9 10.6022 8.84196 10.2206 8.56067 9.93933C8.27936 9.65804 7.89783 9.5 7.5 9.5C7.10217 9.5 6.72064 9.65804 6.43933 9.93933C6.15804 10.2206 6 10.6022 6 11C6 11.3978 6.15804 11.7794 6.43933 12.0607C6.72064 12.342 7.10217 12.5 7.5 12.5ZM18 11C18 11.3978 17.8419 11.7794 17.5606 12.0607C17.2794 12.342 16.8978 12.5 16.5 12.5C16.1022 12.5 15.7206 12.342 15.4394 12.0607C15.1581 11.7794 15 11.3978 15 11C15 10.6022 15.1581 10.2206 15.4394 9.93933C15.7206 9.65804 16.1022 9.5 16.5 9.5C16.8978 9.5 17.2794 9.65804 17.5606 9.93933C17.8419 10.2206 18 10.6022 18 11ZM7.98 14.954C8.22201 14.7845 8.52096 14.7171 8.81229 14.7662C9.10362 14.8153 9.36393 14.9771 9.537 15.2165L9.5475 15.23C9.70177 15.4069 9.87823 15.5632 10.0725 15.695C10.4685 15.962 11.097 16.25 12 16.25C12.903 16.25 13.53 15.962 13.9275 15.6935C14.1218 15.5616 14.2982 15.4054 14.4525 15.2285L14.463 15.2165C14.6361 14.9734 14.8986 14.8091 15.1927 14.7596C15.4871 14.71 15.789 14.7794 16.032 14.9525C16.275 15.1256 16.4394 15.3881 16.4889 15.6823C16.5384 15.9766 16.4691 16.2785 16.296 16.5215L15.375 15.875C16.296 16.52 16.296 16.5215 16.2945 16.5215V16.523L16.293 16.526L16.29 16.5305L16.2825 16.541L16.2615 16.5695C16.1772 16.6825 16.0849 16.7891 15.9855 16.889C15.7444 17.1386 15.4781 17.3623 15.1905 17.5565C14.2458 18.1841 13.1341 18.5129 12 18.5C10.581 18.5 9.522 18.038 8.811 17.555C8.43478 17.3004 8.09514 16.9956 7.8015 16.649C7.78005 16.6229 7.75905 16.5963 7.7385 16.5695L7.7175 16.5395L7.71 16.5305L7.707 16.526V16.523H7.7055L8.625 15.875L7.704 16.52C7.53294 16.2758 7.46577 15.9739 7.51723 15.6802C7.56871 15.3866 7.7346 15.1254 7.9785 14.954H7.98Z"
        fill="currentColor" />
</svg>